{
    "asset" : {
        "generator" : "Khronos glTF Blender I/O v1.5.17",
        "version" : "2.0"
    },
    "scene" : 0,
    "scenes" : [
        {
            "name" : "Scene",
            "nodes" : [
                0,
                1,
                2,
                3,
                4,
                5
            ]
        }
    ],
    "nodes" : [
        {
            "name" : "Sun",
            "rotation" : [
                -0.23666749894618988,
                -0.6663246154785156,
                -0.23666749894618988,
                0.6663246154785156
            ],
            "translation" : [
                6.725393295288086,
                16.12757682800293,
                0
            ]
        },
        {
            "name" : "Camera",
            "rotation" : [
                0.4619397819042206,
                0.3314135670661926,
                -0.19134172797203064,
                0.8001031279563904
            ],
            "translation" : [
                10,
                10.589466094970703,
                10
            ]
        },
        {
            "mesh" : 0,
            "name" : "Water",
            "translation" : [
                0,
                1,
                0
            ]
        },
        {
            "mesh" : 1,
            "name" : "Water_NWShore",
            "translation" : [
                0,
                1,
                0
            ]
        },
        {
            "mesh" : 2,
            "name" : "Water_NShore",
            "translation" : [
                0,
                0.9999999403953552,
                0
            ]
        },
        {
            "mesh" : 3,
            "name" : "Water_NWNub",
            "translation" : [
                0,
                0.9999999403953552,
                0
            ]
        }
    ],
    "materials" : [
        {
            "doubleSided" : true,
            "name" : "Water",
            "pbrMetallicRoughness" : {
                "baseColorTexture" : {
                    "index" : 0
                },
                "metallicFactor" : 0,
                "roughnessFactor" : 0.5
            }
        },
        {
            "doubleSided" : true,
            "name" : "WaterNW",
            "pbrMetallicRoughness" : {
                "baseColorTexture" : {
                    "index" : 1
                },
                "metallicFactor" : 0,
                "roughnessFactor" : 0.5
            }
        },
        {
            "doubleSided" : true,
            "name" : "Water_N",
            "pbrMetallicRoughness" : {
                "baseColorTexture" : {
                    "index" : 2
                },
                "metallicFactor" : 0,
                "roughnessFactor" : 0.5
            }
        },
        {
            "doubleSided" : true,
            "name" : "WaterMat",
            "pbrMetallicRoughness" : {
                "baseColorTexture" : {
                    "index" : 3
                },
                "metallicFactor" : 0,
                "roughnessFactor" : 0.5
            }
        }
    ],
    "meshes" : [
        {
            "name" : "Cube.015",
            "primitives" : [
                {
                    "attributes" : {
                        "POSITION" : 0,
                        "NORMAL" : 1,
                        "TEXCOORD_0" : 2
                    },
                    "indices" : 3,
                    "material" : 0
                }
            ]
        },
        {
            "name" : "Cube.021",
            "primitives" : [
                {
                    "attributes" : {
                        "POSITION" : 4,
                        "NORMAL" : 5,
                        "TEXCOORD_0" : 6
                    },
                    "indices" : 7,
                    "material" : 1
                }
            ]
        },
        {
            "name" : "Cube.023",
            "primitives" : [
                {
                    "attributes" : {
                        "POSITION" : 8,
                        "NORMAL" : 9,
                        "TEXCOORD_0" : 10
                    },
                    "indices" : 11,
                    "material" : 2
                }
            ]
        },
        {
            "name" : "Cube.026",
            "primitives" : [
                {
                    "attributes" : {
                        "POSITION" : 12,
                        "NORMAL" : 13,
                        "TEXCOORD_0" : 14,
                        "COLOR_0" : 15
                    },
                    "indices" : 16,
                    "material" : 3
                }
            ]
        }
    ],
    "textures" : [
        {
            "sampler" : 0,
            "source" : 0
        },
        {
            "sampler" : 0,
            "source" : 1
        },
        {
            "sampler" : 0,
            "source" : 2
        },
        {
            "sampler" : 0,
            "source" : 3
        }
    ],
    "images" : [
        {
            "mimeType" : "image/png",
            "name" : "WaterBig",
            "uri" : "ShoreTileTextures/WaterBig.png"
        },
        {
            "mimeType" : "image/png",
            "name" : "WaterNWBig",
            "uri" : "ShoreTileTextures/WaterNWBig.png"
        },
        {
            "mimeType" : "image/png",
            "name" : "WaterNBig",
            "uri" : "ShoreTileTextures/WaterNBig.png"
        },
        {
            "mimeType" : "image/png",
            "name" : "Water_NWNub",
            "uri" : "ShoreTileTextures/Water_NWNub.png"
        }
    ],
    "accessors" : [
        {
            "bufferView" : 0,
            "componentType" : 5126,
            "count" : 20,
            "max" : [
                1,
                -0.4999999403953552,
                1
            ],
            "min" : [
                -1,
                -1,
                -1
            ],
            "type" : "VEC3"
        },
        {
            "bufferView" : 1,
            "componentType" : 5126,
            "count" : 20,
            "type" : "VEC3"
        },
        {
            "bufferView" : 2,
            "componentType" : 5126,
            "count" : 20,
            "type" : "VEC2"
        },
        {
            "bufferView" : 3,
            "componentType" : 5123,
            "count" : 30,
            "type" : "SCALAR"
        },
        {
            "bufferView" : 4,
            "componentType" : 5126,
            "count" : 112,
            "max" : [
                1,
                -0.24999994039535522,
                1
            ],
            "min" : [
                -1,
                -1,
                -1
            ],
            "type" : "VEC3"
        },
        {
            "bufferView" : 5,
            "componentType" : 5126,
            "count" : 112,
            "type" : "VEC3"
        },
        {
            "bufferView" : 6,
            "componentType" : 5126,
            "count" : 112,
            "type" : "VEC2"
        },
        {
            "bufferView" : 7,
            "componentType" : 5123,
            "count" : 306,
            "type" : "SCALAR"
        },
        {
            "bufferView" : 8,
            "componentType" : 5126,
            "count" : 59,
            "max" : [
                1,
                -0.24999994039535522,
                -0.6000000238418579
            ],
            "min" : [
                -1,
                -1,
                -1
            ],
            "type" : "VEC3"
        },
        {
            "bufferView" : 9,
            "componentType" : 5126,
            "count" : 59,
            "type" : "VEC3"
        },
        {
            "bufferView" : 10,
            "componentType" : 5126,
            "count" : 59,
            "type" : "VEC2"
        },
        {
            "bufferView" : 11,
            "componentType" : 5123,
            "count" : 168,
            "type" : "SCALAR"
        },
        {
            "bufferView" : 12,
            "componentType" : 5126,
            "count" : 58,
            "max" : [
                -0.6000000238418579,
                -0.24999994039535522,
                -0.6000000238418579
            ],
            "min" : [
                -1,
                -1,
                -1
            ],
            "type" : "VEC3"
        },
        {
            "bufferView" : 13,
            "componentType" : 5126,
            "count" : 58,
            "type" : "VEC3"
        },
        {
            "bufferView" : 14,
            "componentType" : 5126,
            "count" : 58,
            "type" : "VEC2"
        },
        {
            "bufferView" : 15,
            "componentType" : 5123,
            "count" : 58,
            "normalized" : true,
            "type" : "VEC4"
        },
        {
            "bufferView" : 16,
            "componentType" : 5123,
            "count" : 180,
            "type" : "SCALAR"
        }
    ],
    "bufferViews" : [
        {
            "buffer" : 0,
            "byteLength" : 240,
            "byteOffset" : 0
        },
        {
            "buffer" : 0,
            "byteLength" : 240,
            "byteOffset" : 240
        },
        {
            "buffer" : 0,
            "byteLength" : 160,
            "byteOffset" : 480
        },
        {
            "buffer" : 0,
            "byteLength" : 60,
            "byteOffset" : 640
        },
        {
            "buffer" : 0,
            "byteLength" : 1344,
            "byteOffset" : 700
        },
        {
            "buffer" : 0,
            "byteLength" : 1344,
            "byteOffset" : 2044
        },
        {
            "buffer" : 0,
            "byteLength" : 896,
            "byteOffset" : 3388
        },
        {
            "buffer" : 0,
            "byteLength" : 612,
            "byteOffset" : 4284
        },
        {
            "buffer" : 0,
            "byteLength" : 708,
            "byteOffset" : 4896
        },
        {
            "buffer" : 0,
            "byteLength" : 708,
            "byteOffset" : 5604
        },
        {
            "buffer" : 0,
            "byteLength" : 472,
            "byteOffset" : 6312
        },
        {
            "buffer" : 0,
            "byteLength" : 336,
            "byteOffset" : 6784
        },
        {
            "buffer" : 0,
            "byteLength" : 696,
            "byteOffset" : 7120
        },
        {
            "buffer" : 0,
            "byteLength" : 696,
            "byteOffset" : 7816
        },
        {
            "buffer" : 0,
            "byteLength" : 464,
            "byteOffset" : 8512
        },
        {
            "buffer" : 0,
            "byteLength" : 464,
            "byteOffset" : 8976
        },
        {
            "buffer" : 0,
            "byteLength" : 360,
            "byteOffset" : 9440
        }
    ],
    "samplers" : [
        {
            "magFilter" : 9729,
            "minFilter" : 9987
        }
    ],
    "buffers" : [
        {
            "byteLength" : 9800,
            "uri" : "ShoreTiles.bin"
        }
    ]
}
