{
    "asset" : {
        "generator" : "Khronos glTF Blender I/O v1.5.17",
        "version" : "2.0"
    },
    "scene" : 0,
    "scenes" : [
        {
            "name" : "Scene",
            "nodes" : [
                0
            ]
        }
    ],
    "nodes" : [
        {
            "mesh" : 0,
            "name" : "Houseboat",
            "rotation" : [
                0.7071068286895752,
                0,
                0,
                0.7071067094802856
            ]
        }
    ],
    "materials" : [
        {
            "doubleSided" : true,
            "name" : "boatBase",
            "pbrMetallicRoughness" : {
                "metallicFactor" : 0,
                "roughnessFactor" : 0.5
            }
        },
        {
            "doubleSided" : true,
            "name" : "boatHighlight",
            "pbrMetallicRoughness" : {
                "baseColorFactor" : [
                    0.8000000715255737,
                    0.2682517170906067,
                    0.034475669264793396,
                    1
                ],
                "metallicFactor" : 0,
                "roughnessFactor" : 0.5
            }
        },
        {
            "doubleSided" : true,
            "name" : "boatDome",
            "pbrMetallicRoughness" : {
                "baseColorFactor" : [
                    0.1741560995578766,
                    0.46460261940956116,
                    0.8006603717803955,
                    1
                ],
                "metallicFactor" : 0,
                "roughnessFactor" : 0.15000000596046448
            }
        },
        {
            "doubleSided" : true,
            "name" : "BoatHullVines",
            "pbrMetallicRoughness" : {
                "baseColorTexture" : {
                    "index" : 0
                },
                "metallicFactor" : 0,
                "roughnessFactor" : 0.4868420958518982
            }
        }
    ],
    "meshes" : [
        {
            "name" : "Houseboat",
            "primitives" : [
                {
                    "attributes" : {
                        "POSITION" : 0,
                        "NORMAL" : 1,
                        "TEXCOORD_0" : 2
                    },
                    "indices" : 3,
                    "material" : 0
                },
                {
                    "attributes" : {
                        "POSITION" : 4,
                        "NORMAL" : 5,
                        "TEXCOORD_0" : 6
                    },
                    "indices" : 7,
                    "material" : 1
                },
                {
                    "attributes" : {
                        "POSITION" : 8,
                        "NORMAL" : 9,
                        "TEXCOORD_0" : 10
                    },
                    "indices" : 11,
                    "material" : 2
                },
                {
                    "attributes" : {
                        "POSITION" : 12,
                        "NORMAL" : 13,
                        "TEXCOORD_0" : 14
                    },
                    "indices" : 15,
                    "material" : 3
                }
            ]
        }
    ],
    "textures" : [
        {
            "sampler" : 0,
            "source" : 0
        }
    ],
    "images" : [
        {
            "mimeType" : "image/png",
            "name" : "BoatHullTexture",
            "uri" : "BoatHullTexture.png"
        }
    ],
    "accessors" : [
        {
            "bufferView" : 0,
            "componentType" : 5126,
            "count" : 820,
            "max" : [
                4.851399898529053,
                0,
                0
            ],
            "min" : [
                0,
                -15.887399673461914,
                -4.5760498046875
            ],
            "type" : "VEC3"
        },
        {
            "bufferView" : 1,
            "componentType" : 5126,
            "count" : 820,
            "type" : "VEC3"
        },
        {
            "bufferView" : 2,
            "componentType" : 5126,
            "count" : 820,
            "type" : "VEC2"
        },
        {
            "bufferView" : 3,
            "componentType" : 5123,
            "count" : 1539,
            "type" : "SCALAR"
        },
        {
            "bufferView" : 4,
            "componentType" : 5126,
            "count" : 682,
            "max" : [
                4.851399898529053,
                0,
                -1.7253137826919556
            ],
            "min" : [
                0,
                -15.887399673461914,
                -2.6272499561309814
            ],
            "type" : "VEC3"
        },
        {
            "bufferView" : 5,
            "componentType" : 5126,
            "count" : 682,
            "type" : "VEC3"
        },
        {
            "bufferView" : 6,
            "componentType" : 5126,
            "count" : 682,
            "type" : "VEC2"
        },
        {
            "bufferView" : 7,
            "componentType" : 5123,
            "count" : 924,
            "type" : "SCALAR"
        },
        {
            "bufferView" : 8,
            "componentType" : 5126,
            "count" : 439,
            "max" : [
                4.599939823150635,
                -3.6834700107574463,
                -1.3300000429153442
            ],
            "min" : [
                0.25145599246025085,
                -14.801400184631348,
                -3.9663400650024414
            ],
            "type" : "VEC3"
        },
        {
            "bufferView" : 9,
            "componentType" : 5126,
            "count" : 439,
            "type" : "VEC3"
        },
        {
            "bufferView" : 10,
            "componentType" : 5126,
            "count" : 439,
            "type" : "VEC2"
        },
        {
            "bufferView" : 11,
            "componentType" : 5123,
            "count" : 501,
            "type" : "SCALAR"
        },
        {
            "bufferView" : 12,
            "componentType" : 5126,
            "count" : 97,
            "max" : [
                4.815460205078125,
                -3.1134700775146484,
                -1.3300000429153442
            ],
            "min" : [
                0.03593650087714195,
                -9.783539772033691,
                -4.316050052642822
            ],
            "type" : "VEC3"
        },
        {
            "bufferView" : 13,
            "componentType" : 5126,
            "count" : 97,
            "type" : "VEC3"
        },
        {
            "bufferView" : 14,
            "componentType" : 5126,
            "count" : 97,
            "type" : "VEC2"
        },
        {
            "bufferView" : 15,
            "componentType" : 5123,
            "count" : 255,
            "type" : "SCALAR"
        }
    ],
    "bufferViews" : [
        {
            "buffer" : 0,
            "byteLength" : 9840,
            "byteOffset" : 0
        },
        {
            "buffer" : 0,
            "byteLength" : 9840,
            "byteOffset" : 9840
        },
        {
            "buffer" : 0,
            "byteLength" : 6560,
            "byteOffset" : 19680
        },
        {
            "buffer" : 0,
            "byteLength" : 3078,
            "byteOffset" : 26240
        },
        {
            "buffer" : 0,
            "byteLength" : 8184,
            "byteOffset" : 29320
        },
        {
            "buffer" : 0,
            "byteLength" : 8184,
            "byteOffset" : 37504
        },
        {
            "buffer" : 0,
            "byteLength" : 5456,
            "byteOffset" : 45688
        },
        {
            "buffer" : 0,
            "byteLength" : 1848,
            "byteOffset" : 51144
        },
        {
            "buffer" : 0,
            "byteLength" : 5268,
            "byteOffset" : 52992
        },
        {
            "buffer" : 0,
            "byteLength" : 5268,
            "byteOffset" : 58260
        },
        {
            "buffer" : 0,
            "byteLength" : 3512,
            "byteOffset" : 63528
        },
        {
            "buffer" : 0,
            "byteLength" : 1002,
            "byteOffset" : 67040
        },
        {
            "buffer" : 0,
            "byteLength" : 1164,
            "byteOffset" : 68044
        },
        {
            "buffer" : 0,
            "byteLength" : 1164,
            "byteOffset" : 69208
        },
        {
            "buffer" : 0,
            "byteLength" : 776,
            "byteOffset" : 70372
        },
        {
            "buffer" : 0,
            "byteLength" : 510,
            "byteOffset" : 71148
        }
    ],
    "samplers" : [
        {
            "magFilter" : 9729,
            "minFilter" : 9987
        }
    ],
    "buffers" : [
        {
            "byteLength" : 71660,
            "uri" : "Houseboat.bin"
        }
    ]
}
