{
    "asset" : {
        "generator" : "Khronos glTF Blender I/O v1.5.17",
        "version" : "2.0"
    },
    "scene" : 0,
    "scenes" : [
        {
            "name" : "Scene",
            "nodes" : [
                0
            ]
        }
    ],
    "nodes" : [
        {
            "mesh" : 0,
            "name" : "SketchUp",
            "scale" : [
                0.02539999969303608,
                0.02539999969303608,
                0.02539999969303608
            ]
        }
    ],
    "materials" : [
        {
            "doubleSided" : true,
            "name" : "Material",
            "pbrMetallicRoughness" : {
                "baseColorFactor" : [
                    0.09843574464321136,
                    0.3082651197910309,
                    0.063839390873909,
                    1
                ],
                "metallicFactor" : 0,
                "roughnessFactor" : 0.7914474010467529
            }
        }
    ],
    "meshes" : [
        {
            "name" : "ID3",
            "primitives" : [
                {
                    "attributes" : {
                        "POSITION" : 0,
                        "NORMAL" : 1,
                        "TEXCOORD_0" : 2
                    },
                    "indices" : 3,
                    "material" : 0
                }
            ]
        }
    ],
    "accessors" : [
        {
            "bufferView" : 0,
            "componentType" : 5126,
            "count" : 10201,
            "max" : [
                39370.078125,
                10019.6494140625,
                0
            ],
            "min" : [
                -3392.97998046875,
                -1177.367919921875,
                -39370.078125
            ],
            "type" : "VEC3"
        },
        {
            "bufferView" : 1,
            "componentType" : 5126,
            "count" : 10201,
            "type" : "VEC3"
        },
        {
            "bufferView" : 2,
            "componentType" : 5126,
            "count" : 10201,
            "type" : "VEC2"
        },
        {
            "bufferView" : 3,
            "componentType" : 5123,
            "count" : 60000,
            "type" : "SCALAR"
        }
    ],
    "bufferViews" : [
        {
            "buffer" : 0,
            "byteLength" : 122412,
            "byteOffset" : 0
        },
        {
            "buffer" : 0,
            "byteLength" : 122412,
            "byteOffset" : 122412
        },
        {
            "buffer" : 0,
            "byteLength" : 81608,
            "byteOffset" : 244824
        },
        {
            "buffer" : 0,
            "byteLength" : 120000,
            "byteOffset" : 326432
        }
    ],
    "buffers" : [
        {
            "byteLength" : 446432,
            "uri" : "data:application/octet-stream;base64,"
        }
    ]
}
