{
    "asset" : {
        "generator" : "Khronos glTF Blender I/O v1.5.17",
        "version" : "2.0"
    },
    "scene" : 0,
    "scenes" : [
        {
            "name" : "Scene",
            "nodes" : [
                0
            ]
        }
    ],
    "nodes" : [
        {
            "mesh" : 0,
            "name" : "Icosphere.157",
            "rotation" : [
                0.5000000596046448,
                0.5000000596046448,
                -0.5000001192092896,
                0.4999999403953552
            ],
            "scale" : [
                0.4943997263908386,
                0.494399756193161,
                0.4943997263908386
            ]
        }
    ],
    "materials" : [
        {
            "doubleSided" : true,
            "name" : "TreeMat",
            "pbrMetallicRoughness" : {}
        }
    ],
    "meshes" : [
        {
            "name" : "Icosphere.003",
            "primitives" : [
                {
                    "attributes" : {
                        "POSITION" : 0,
                        "NORMAL" : 1,
                        "TEXCOORD_0" : 2
                    },
                    "indices" : 3,
                    "material" : 0
                }
            ]
        }
    ],
    "accessors" : [
        {
            "bufferView" : 0,
            "componentType" : 5126,
            "count" : 7920,
            "max" : [
                19.288116455078125,
                26.77630615234375,
                5.371381759643555
            ],
            "min" : [
                -13.137207984924316,
                -29.201927185058594,
                -21.480865478515625
            ],
            "type" : "VEC3"
        },
        {
            "bufferView" : 1,
            "componentType" : 5126,
            "count" : 7920,
            "type" : "VEC3"
        },
        {
            "bufferView" : 2,
            "componentType" : 5126,
            "count" : 7920,
            "type" : "VEC2"
        },
        {
            "bufferView" : 3,
            "componentType" : 5123,
            "count" : 7920,
            "type" : "SCALAR"
        }
    ],
    "bufferViews" : [
        {
            "buffer" : 0,
            "byteLength" : 95040,
            "byteOffset" : 0
        },
        {
            "buffer" : 0,
            "byteLength" : 95040,
            "byteOffset" : 95040
        },
        {
            "buffer" : 0,
            "byteLength" : 63360,
            "byteOffset" : 190080
        },
        {
            "buffer" : 0,
            "byteLength" : 15840,
            "byteOffset" : 253440
        }
    ],
    "buffers" : [
        {
            "byteLength" : 269280,
            "uri" : "data:application/octet-stream;base64,"
        }
    ]
}
