{
    "asset" : {
        "generator" : "Khronos glTF Blender I/O v1.5.17",
        "version" : "2.0"
    },
    "scene" : 0,
    "scenes" : [
        {
            "name" : "Scene",
            "nodes" : [
                0
            ]
        }
    ],
    "nodes" : [
        {
            "mesh" : 0,
            "name" : "Icosphere.157",
            "rotation" : [
                0.5000000596046448,
                0.5000000596046448,
                -0.5000001192092896,
                0.4999999403953552
            ],
            "scale" : [
                0.4943997263908386,
                0.494399756193161,
                0.4943997263908386
            ],
            "translation" : [
                -21.529199600219727,
                0,
                7.413928508758545
            ]
        }
    ],
    "materials" : [
        {
            "doubleSided" : true,
            "name" : "TreeMat",
            "pbrMetallicRoughness" : {}
        }
    ],
    "meshes" : [
        {
            "name" : "Icosphere.003",
            "primitives" : [
                {
                    "attributes" : {
                        "POSITION" : 0,
                        "NORMAL" : 1,
                        "TEXCOORD_0" : 2
                    },
                    "indices" : 3,
                    "material" : 0
                }
            ]
        }
    ],
    "accessors" : [
        {
            "bufferView" : 0,
            "componentType" : 5126,
            "count" : 24960,
            "max" : [
                22.360183715820312,
                132.44696044921875,
                6.859965801239014
            ],
            "min" : [
                -13.137214660644531,
                -35.742069244384766,
                -22.46027374267578
            ],
            "type" : "VEC3"
        },
        {
            "bufferView" : 1,
            "componentType" : 5126,
            "count" : 24960,
            "type" : "VEC3"
        },
        {
            "bufferView" : 2,
            "componentType" : 5126,
            "count" : 24960,
            "type" : "VEC2"
        },
        {
            "bufferView" : 3,
            "componentType" : 5123,
            "count" : 24960,
            "type" : "SCALAR"
        }
    ],
    "bufferViews" : [
        {
            "buffer" : 0,
            "byteLength" : 299520,
            "byteOffset" : 0
        },
        {
            "buffer" : 0,
            "byteLength" : 299520,
            "byteOffset" : 299520
        },
        {
            "buffer" : 0,
            "byteLength" : 199680,
            "byteOffset" : 599040
        },
        {
            "buffer" : 0,
            "byteLength" : 49920,
            "byteOffset" : 798720
        }
    ],
    "buffers" : [
        {
            "byteLength" : 848640,
            "uri" : "data:application/octet-stream;base64,"
        }
    ]
}
