# Alias OBJ Model File
# Exported from SketchUp, (c) 2000-2012 Trimble Navigation Limited
# File units = meters

mtllib Goal Posts.mtl

g Mesh1 Group1 Model

usemtl Color_M00
v 6.65531 2.56474e-30 -5.93691
vt 0 192
vn 0 -1 -0
v 6.65531 2.56474e-30 -6.08931
vt 0 198
v 6.80771 2.56474e-30 -6.08931
vt -6 198
v 6.80771 2.56474e-30 -5.93691
vt -6 192
f 1/1/1 2/2/1 3/3/1 4/4/1 

vt -192 0
vn -1 0 -0
v 6.65531 1.9812 -5.93691
vt -192 78
v 6.65531 1.9812 -1.21251
vt -6 78
v 6.65531 2.56474e-30 -1.21251
vt -6 0
v 6.65531 2.56474e-30 -1.06011
vt 0 0
v 6.65531 2.1336 -1.06011
vt 0 84
v 6.65531 2.1336 -6.08931
vt -198 84
vt -198 0
f 1/5/2 5/6/2 6/7/2 7/8/2 8/9/2 9/10/2 10/11/2 2/12/2 

vt 0 -1.67907e-12
vn 0 -8.74514e-15 1
vt 6 -1.67907e-12
v 6.80771 1.9812 -5.93691
vt 6 78
vt 0 78
f 1/13/3 4/14/3 11/15/3 5/16/3 

vt 198 0
vn 1 0 -0
v 6.80771 1.9812 -6.08931
vt 198 78
vt 192 78
vt 192 0
f 3/17/4 12/18/4 11/19/4 4/20/4 

vn 0 0 -1
v 6.80771 2.1336 -6.08931
vt -6 84
f 3/8/5 2/9/5 10/10/5 13/21/5 12/7/5 

v 6.80771 2.1336 -1.06011
vt 6 0
vn 0 1 -0
v 6.80771 2.1336 -1.21251
vt 6 6
v 6.80771 2.1336 -5.93691
vt 6 192
vt 6 198
f 14/22/6 15/23/6 16/24/6 13/25/6 10/2/6 9/9/6 

v 6.80771 1.9812 -1.06011
v 6.80771 1.9812 -1.21251
vt 6 84
f 17/16/4 18/15/4 15/26/4 14/10/4 

vt -6 58.7717
vn -0.799671 -0.600439 -0
v 8.29531 2.56474e-30 -1.21251
vt -6 -38.7685
v 8.29531 2.56474e-30 -1.06011
vt 0 -38.7685
vt 0 58.7717
f 18/27/7 19/28/7 20/29/7 17/30/7 

v 8.44771 2.56474e-30 -1.21251
vt -70.5669 0
vt -64.5669 0
f 15/21/5 21/31/5 19/32/5 18/7/5 

vt 6 -43.0051
vn 0.792845 0.609423 -0
vt 6 62.9424
vt 0 62.9424
v 8.44771 2.56474e-30 -1.06011
vt 0 -43.0051
f 21/33/8 15/34/8 14/35/8 22/36/8 

vt 70.5669 0
vn 0 0 1
vt 64.5669 0
f 22/37/9 14/26/9 17/15/9 20/38/9 

v 6.80771 2.56474e-30 -1.06011
f 8/9/9 23/22/9 17/15/9 14/26/9 9/10/9 

vt 0 6
v 6.80771 2.56474e-30 -1.21251
vt -6 6
f 8/9/1 7/39/1 24/40/1 23/8/1 

f 7/9/5 6/16/5 18/7/5 24/8/5 

f 18/40/1 6/39/1 5/1/1 11/4/1 

vt 192 84
f 16/41/4 15/26/4 18/15/4 11/19/4 

vt 198 84
f 16/41/4 11/19/4 12/18/4 13/42/4 

v 8.44771 2.56474e-30 -5.93691
vt 70.5669 -1.02303e-12
vn 4.04997e-15 -5.32831e-15 1
v 8.29531 2.56474e-30 -5.93691
vt 64.5669 -1.02303e-12
f 25/43/10 16/26/10 11/15/10 26/44/10 

v 8.44771 2.56474e-30 -6.08931
vt 198 -43.0051
vn 0.792845 0.609423 -1.89755e-16
vt 198 62.9424
vt 192 62.9424
vt 192 -43.0051
f 27/45/11 13/46/11 16/47/11 25/48/11 

v 8.29531 2.56474e-30 -6.08931
f 13/21/5 27/31/5 28/32/5 12/7/5 

vt -64.5669 192
vt -64.5669 198
vt -70.5669 198
vt -70.5669 192
f 26/49/1 28/50/1 27/51/1 25/52/1 

vt -198 58.7717
vn -0.799671 -0.600439 1.91388e-16
vt -198 -38.7685
vt -192 -38.7685
vt -192 58.7717
f 12/53/12 28/54/12 26/55/12 11/56/12 

f 24/22/4 18/15/4 17/16/4 23/9/4 

vt -64.5669 6
vt -70.5669 6
f 20/32/1 19/57/1 21/58/1 22/31/1 

g Mesh2 Group2 Model

v 6.62026 3.6302 -11.7693
vt 0 108.265
v 6.62026 3.6302 -11.5819
vt 0 98.4252
v 6.80771 3.6302 -11.5819
vt 9.84 98.4252
v 6.80771 3.6302 -11.7693
vt 9.84 108.265
f 29/59/6 30/60/6 31/61/6 32/62/6 

v 6.62026 -3.33067e-16 -10.8318
vt -59.0526 -39.3701
v 6.62026 -3.33067e-16 -10.6444
vt -49.2126 -39.3701
v 6.62026 2.38025 -10.6444
vt -49.2126 85.5773
v 6.62026 2.38025 -9.70686
vt 0 85.5773
v 6.62026 3.6302 -9.70686
vt 0 151.192
v 6.62026 3.6302 -9.89431
vt -9.84 151.192
v 6.62026 2.5677 -9.89431
vt -9.84 95.4173
v 6.62026 2.5677 -11.5819
vt -98.4252 95.4173
vt -98.4252 151.192
vt -108.265 151.192
v 6.62026 2.38025 -11.7693
vt -108.265 85.5773
v 6.62026 2.38025 -10.8318
vt -59.0526 85.5773
f 33/63/2 34/64/2 35/65/2 36/66/2 37/67/2 38/68/2 39/69/2 40/70/2 30/71/2 29/72/2 41/73/2 42/74/2 

vt 0 59.0526
v 6.80771 -3.33067e-16 -10.8318
vt -9.84 59.0526
v 6.80771 -3.33067e-16 -10.6444
vt -9.84 49.2126
vt 0 49.2126
f 33/75/1 43/76/1 44/77/1 34/78/1 

vt 0 -39.3701
v 6.80771 2.38025 -10.8318
vt -9.84 85.5773
vt -9.84 -39.3701
f 33/79/5 42/66/5 45/80/5 43/81/5 

v 6.80771 2.38025 -11.7693
vt -9.84 108.265
f 45/76/1 42/75/1 41/59/1 46/82/1 

f 32/68/5 46/80/5 41/66/5 29/67/5 

vt 49.2126 -39.3701
vt 59.0526 -39.3701
vt 59.0526 85.5773
vt 108.265 85.5773
vt 108.265 151.192
vt 98.4252 151.192
v 6.80771 2.5677 -11.5819
vt 98.4252 95.4173
v 6.80771 2.5677 -9.89431
vt 9.84 95.4173
v 6.80771 3.6302 -9.89431
vt 9.84 151.192
v 6.80771 3.6302 -9.70686
v 6.80771 2.38025 -9.70686
v 6.80771 2.38025 -10.6444
vt 49.2126 85.5773
f 44/83/4 43/84/4 45/85/4 46/86/4 32/87/4 31/88/4 47/89/4 48/90/4 49/91/4 50/67/4 51/66/4 52/92/4 

vt 0 95.4173
f 40/93/9 47/90/9 31/91/9 30/67/9 

vt 0 9.84
vt 9.84 9.84
f 40/60/6 39/94/6 48/95/6 47/61/6 

f 48/69/5 39/93/5 38/67/5 49/68/5 

vt 9.84 0
f 50/96/6 49/95/6 38/94/6 37/9/6 

vt 9.84 85.5773
f 37/67/9 36/66/9 51/97/9 50/91/9 

vt -9.84 0
f 35/78/1 52/77/1 51/98/1 36/9/1 

vt 9.84 -39.3701
f 44/99/9 52/97/9 35/66/9 34/79/9 

g Mesh3 Group3 Model

v 4.02771 2.5677 -11.5819
vn 4.14172e-15 6.45384e-15 1
v 4.02771 2.85974 -11.5819
vt 9.84 110.747
v 3.84026 3.10033 -11.5819
vt 4.07649e-13 123.377
v 3.84026 2.5677 -11.5819
vt 4.07649e-13 95.4173
f 53/90/13 54/100/13 55/101/13 56/102/13 

v 4.02771 2.38025 -11.7693
v 4.02771 2.85974 -11.7693
vt 108.265 110.747
vt 98.4252 110.747
v 4.02771 2.5677 -9.89431
v 4.02771 3.6302 -9.89431
v 4.02771 3.6302 -9.70686
v 4.02771 2.38025 -9.70686
v 4.02771 2.38025 -10.6444
v 4.02771 -3.33067e-16 -10.6444
v 4.02771 -3.33067e-16 -10.8318
v 4.02771 2.38025 -10.8318
f 57/86/4 58/103/4 54/104/4 53/89/4 59/90/4 60/91/4 61/67/4 62/66/4 63/92/4 64/83/4 65/84/4 66/85/4 

v 3.84026 2.38025 -11.7693
vt -3.21566e-13 85.5773
vn -2.97017e-15 -4.62827e-15 -1
v 3.84026 3.10033 -11.7693
vt -3.21566e-13 123.377
vt -9.84 110.747
f 67/105/14 68/106/14 58/107/14 57/80/14 

vt -98.4252 123.377
vt -108.265 123.377
v 3.84026 2.38025 -10.8318
v 3.84026 -3.33067e-16 -10.8318
v 3.84026 -3.33067e-16 -10.6444
v 3.84026 2.38025 -10.6444
v 3.84026 2.38025 -9.70686
v 3.84026 3.6302 -9.70686
v 3.84026 3.6302 -9.89431
v 3.84026 2.5677 -9.89431
f 56/70/2 55/108/2 68/109/2 67/73/2 69/74/2 70/63/2 71/64/2 72/65/2 73/66/2 74/67/2 75/68/2 76/69/2 

vt 98.4252 97.3243
vn 0.788837 0.614603 4.00906e-17
vt 98.4252 81.314
vt 108.265 81.314
vt 108.265 97.3243
f 55/110/15 54/111/15 58/112/15 68/113/15 

f 66/76/1 69/75/1 67/59/1 57/82/1 

f 70/79/5 69/66/5 66/80/5 65/81/5 

f 70/75/1 65/76/1 64/77/1 71/78/1 

f 64/99/9 63/97/9 72/66/9 71/79/9 

f 72/78/1 63/77/1 62/98/1 73/9/1 

f 74/67/9 73/66/9 62/97/9 61/91/9 

f 61/96/6 60/95/6 75/94/6 74/9/6 

f 59/69/5 76/93/5 75/67/5 60/68/5 

f 56/60/6 76/94/6 59/95/6 53/61/6 

g Mesh4 Group5 Group4 Model

v 3.72291 2.11224 -1.29032
vt 146.12 61.0379
vn -1 -8.55572e-16 2.18725e-15
v 3.72291 0.121051 -4.64387
vt 2.29546 7.26389
v 3.72291 -0.0708608 -4.66858
vt 8.37157e-14 1.22389e-14
v 3.72291 1.9812 -1.21251
vt 148.222 55.4178
f 77/114/16 78/115/16 79/116/16 80/117/16 

v 3.87531 2.11224 -1.29032
vt 1.5127e-14 158.243
vn -9.96778e-16 0.859852 -0.510543
v 3.87531 0.121051 -4.64387
vt 2.37635e-16 4.69396
vt 6 4.69396
vt 6 158.243
f 81/118/17 82/119/17 78/120/17 77/121/17 

v 3.87531 1.9812 -1.21251
vt -148.222 55.4178
vn 1 8.55572e-16 -2.18725e-15
v 3.87531 -0.0708608 -4.66858
vt -2.55795e-13 4.26326e-14
vt -2.29546 7.26389
vt -146.12 61.0379
f 83/122/18 84/123/18 82/124/18 81/125/18 

vt -6 158.243
vn 9.96778e-16 -0.859852 0.510543
vt -6 8.1772e-14
vt -2.6481e-29 2.54527e-13
vt -1.53445e-14 158.243
f 80/126/19 79/127/19 84/128/19 83/129/19 

vt 6 7.61796
vn 1.48948e-14 0.127706 -0.991812
vt -4.0129e-14 7.61796
vt -4.47179e-27 1.17728e-13
vt 6 6.40736e-14
f 78/130/20 82/131/20 84/132/20 79/133/20 

vt 4.78399e-12 6
vn -2.91651e-14 0.510543 0.859852
vt -6 -1.55609e-12
vt 4.85279e-12 -1.52767e-12
f 81/134/21 77/40/21 80/135/21 83/136/21 

g Mesh5 Group4 Model

v 3.87531 2.56474e-30 -1.21251
vn 0 -1 0
v 3.87531 2.56474e-30 -1.06011
v 3.72291 2.56474e-30 -1.06011
v 3.72291 2.56474e-30 -1.21251
f 85/1/22 86/2/22 87/3/22 88/4/22 

v 3.87531 2.1336 -1.21251
vt -192 84
v 3.87531 2.1336 -1.06011
f 85/5/4 89/137/4 90/11/4 86/12/4 

vt 6 -1.6848e-12
vn 1.26319e-14 -8.77501e-15 -1
v 3.72291 1.9812 -1.21251
v 3.72291 2.1336 -1.21251
vt -2.79569e-12 84
vt -2.79569e-12 -1.6848e-12
f 88/138/23 91/15/23 92/26/23 89/139/23 85/140/23 

vn -1 0 1.92901e-15
v 3.72291 1.9812 -1.06011
f 87/17/24 93/18/24 91/19/24 88/20/24 

vn 1.92901e-15 0 1
v 3.72291 2.1336 -1.06011
f 87/8/25 86/9/25 90/10/25 94/21/25 93/7/25 

f 90/2/6 89/1/6 92/24/6 94/25/6 

f 92/41/24 91/19/24 93/18/24 94/42/24 

v 2.08291 2.56474e-30 -1.21251
vn -5.97898e-15 -5.32831e-15 -1
v 2.23531 2.56474e-30 -1.21251
f 95/43/26 92/26/26 91/15/26 96/44/26 

v 2.08291 2.56474e-30 -1.06011
vn -0.792845 0.609423 1.71916e-15
f 97/45/27 94/46/27 92/47/27 95/48/27 

v 2.23531 2.56474e-30 -1.06011
f 94/21/25 97/31/25 98/32/25 93/7/25 

f 96/49/22 98/50/22 97/51/22 95/52/22 

vn 0.799671 -0.600439 -1.73396e-15
f 93/53/28 98/54/28 96/55/28 91/56/28 

g Mesh6 Group4 Model

v 3.87531 2.56474e-30 -6.08931
v 3.87531 2.56474e-30 -5.93691
v 3.72291 2.56474e-30 -5.93691
v 3.72291 2.56474e-30 -6.08931
vt -6 -2.84217e-13
f 99/9/22 100/39/22 101/40/22 102/141/22 

v 3.87531 2.1336 -6.08931
vn 1 -1.53134e-17 -1.64547e-15
v 3.87531 2.1336 -5.11266
vt -38.4511 84
v 3.87531 1.9812 -5.23188
vt -33.7571 78
v 3.87531 1.9812 -5.93691
vt -6 2.60519e-32
f 103/10/29 104/142/29 105/143/29 106/7/29 100/144/29 99/9/29 

v 3.72291 2.1336 -5.93691
v 3.72291 2.1336 -5.11266
vt 6 38.4511
vt 0 38.4511
v 3.72291 2.1336 -6.08931
vt 6 -2.84217e-13
f 107/23/6 108/145/6 104/146/6 103/9/6 109/147/6 

v 3.72291 1.9812 -5.93691
vn -1 -7.34145e-16 1.87682e-15
v 3.72291 1.9812 -5.23188
vt 33.7571 78
vt 38.4511 84
f 110/15/30 111/148/30 108/149/30 107/26/30 

vt 0 33.7571
vt -6 33.7571
f 106/39/22 105/150/22 111/151/22 110/40/22 

vt -6 89.8519
vn 0 -0.616171 0.787613
vt -6 82.2339
vt 6.51179e-14 82.2339
vt 7.41726e-14 89.8519
f 108/152/31 111/153/31 105/154/31 104/155/31 

f 100/9/25 106/16/25 110/7/25 101/8/25 

v 3.72291 1.9812 -6.08931
vt -2.84217e-13 78
vt -2.84217e-13 0
f 101/22/24 110/15/24 112/156/24 102/157/24 

vn 0.799671 -0.600439 -1.54257e-15
v 2.23531 2.56474e-30 -5.93691
v 2.23531 2.56474e-30 -6.08931
vt 2.84217e-13 -38.7685
vt 2.84217e-13 58.7717
f 110/27/32 113/28/32 114/158/32 112/159/32 

v 2.08291 2.56474e-30 -5.93691
f 107/21/25 115/31/25 113/32/25 110/7/25 

vn -0.792845 0.609423 1.52941e-15
vt -2.84217e-13 62.9424
v 2.08291 2.56474e-30 -6.08931
vt -2.27374e-13 -43.0051
f 115/33/33 107/34/33 109/160/33 116/161/33 

vt -2.84217e-13 84
f 112/156/24 110/15/24 107/26/24 109/162/24 

vn -1.92901e-15 0 -1
f 99/9/34 102/22/34 112/15/34 109/26/34 103/10/34 

f 116/37/34 109/26/34 112/15/34 114/38/34 

vt -64.5669 -2.84217e-13
vt -70.5669 -2.27374e-13
f 114/163/22 113/57/22 115/58/22 116/164/22 

